<?xml version="1.0" encoding="UTF-8"?>
<svg height="128px" viewBox="0 0 128 128" width="128px" xmlns="http://www.w3.org/2000/svg" xmlns:xlink="http://www.w3.org/1999/xlink">
    <clipPath id="a">
        <rect height="128" width="128"/>
    </clipPath>
    <clipPath id="b">
        <rect height="128" width="128"/>
    </clipPath>
    <filter id="c" height="100%" width="100%" x="0%" y="0%">
        <feColorMatrix in="SourceGraphic" type="matrix" values="0 0 0 0 1 0 0 0 0 1 0 0 0 0 1 0 0 0 1 0"/>
    </filter>
    <mask id="d">
        <g clip-path="url(#b)" filter="url(#c)">
            <g clip-path="url(#a)">
                <path d="m 127.183594 82.421875 v 21.050781 c 0 5.8125 -4.714844 10.527344 -10.527344 10.527344 h -105.265625 c -5.8125 0 -10.527344 -4.714844 -10.527344 -10.527344 v -21.050781 c 0 -5.8125 4.714844 -10.527344 10.527344 -10.527344 h 105.265625 c 5.8125 0 10.527344 4.714844 10.527344 10.527344 z m -10.527344 -17.546875 c 2.324219 0 4.605469 0.460938 6.753906 1.359375 l -21.160156 -31.753906 c -1.953125 -2.9375 -5.242188 -4.691407 -8.75 -4.691407 h -58.929688 c -3.507812 0 -6.796874 1.753907 -8.75 4.691407 l -21.183593 31.753906 c 2.148437 -0.898437 4.429687 -1.359375 6.753906 -1.359375 z m -10.527344 21.054688 c -3.878906 0 -7.015625 3.136718 -7.015625 7.019531 c 0 3.878906 3.136719 7.015625 7.015625 7.015625 c 3.882813 0 7.019532 -3.136719 7.019532 -7.015625 c 0 -3.882813 -3.136719 -7.019531 -7.019532 -7.019531 z m -21.050781 0 c -3.882813 0 -7.019531 3.136718 -7.019531 7.019531 c 0 3.878906 3.136718 7.015625 7.019531 7.015625 c 3.878906 0 7.015625 -3.136719 7.015625 -7.015625 c 0 -3.882813 -3.136719 -7.019531 -7.015625 -7.019531 z m 0 0" fill="#888888"/>
                <path d="m 92.09375 92.992188 c 0 3.898437 -3.160156 7.0625 -7.058594 7.0625 c -3.902344 0 -7.0625 -3.164063 -7.0625 -7.0625 c 0 -3.902344 3.160156 -7.0625 7.0625 -7.0625 c 3.898438 0 7.058594 3.160156 7.058594 7.0625 z m 0 0" fill="#e65100"/>
                <path d="m 113.191406 92.949219 c 0 3.898437 -3.160156 7.058593 -7.0625 7.058593 c -3.898437 0 -7.058594 -3.160156 -7.058594 -7.058593 c 0 -3.902344 3.160157 -7.0625 7.058594 -7.0625 c 3.902344 0 7.0625 3.160156 7.0625 7.0625 z m 0 0" fill="#ff9800"/>
            </g>
        </g>
    </mask>
    <mask id="e">
        <g filter="url(#c)">
            <rect fill-opacity="0.8" height="128" width="128"/>
        </g>
    </mask>
    <linearGradient id="f" gradientTransform="matrix(0 0.37 -0.98462 0 295.38501 -30.360001)" gradientUnits="userSpaceOnUse" x1="300" x2="428" y1="235" y2="235">
        <stop offset="0" stop-color="#f9f06b"/>
        <stop offset="1" stop-color="#f5c211"/>
    </linearGradient>
    <clipPath id="g">
        <rect height="128" width="128"/>
    </clipPath>
    <clipPath id="h">
        <rect height="128" width="128"/>
    </clipPath>
    <path d="m 127.183594 82.421875 v 21.050781 c 0 5.8125 -4.714844 10.527344 -10.527344 10.527344 h -105.265625 c -5.8125 0 -10.527344 -4.714844 -10.527344 -10.527344 v -21.050781 c 0 -5.8125 4.714844 -10.527344 10.527344 -10.527344 h 105.265625 c 5.8125 0 10.527344 4.714844 10.527344 10.527344 z m -10.527344 -17.546875 c 2.324219 0 4.605469 0.460938 6.753906 1.359375 l -21.160156 -31.753906 c -1.953125 -2.9375 -5.242188 -4.691407 -8.75 -4.691407 h -58.929688 c -3.507812 0 -6.796874 1.753907 -8.75 4.691407 l -21.183593 31.753906 c 2.148437 -0.898437 4.429687 -1.359375 6.753906 -1.359375 z m -10.527344 21.054688 c -3.878906 0 -7.015625 3.136718 -7.015625 7.019531 c 0 3.878906 3.136719 7.015625 7.015625 7.015625 c 3.882813 0 7.019532 -3.136719 7.019532 -7.015625 c 0 -3.882813 -3.136719 -7.019531 -7.019532 -7.019531 z m -21.050781 0 c -3.882813 0 -7.019531 3.136718 -7.019531 7.019531 c 0 3.878906 3.136718 7.015625 7.019531 7.015625 c 3.878906 0 7.015625 -3.136719 7.015625 -7.015625 c 0 -3.882813 -3.136719 -7.019531 -7.015625 -7.019531 z m 0 0" fill="#888888"/>
    <path d="m 92.09375 92.992188 c 0 3.898437 -3.160156 7.0625 -7.058594 7.0625 c -3.902344 0 -7.0625 -3.164063 -7.0625 -7.0625 c 0 -3.902344 3.160156 -7.0625 7.0625 -7.0625 c 3.898438 0 7.058594 3.160156 7.058594 7.0625 z m 0 0" fill="#e65100"/>
    <path d="m 113.191406 92.949219 c 0 3.898437 -3.160156 7.058593 -7.0625 7.058593 c -3.898437 0 -7.058594 -3.160156 -7.058594 -7.058593 c 0 -3.902344 3.160157 -7.0625 7.058594 -7.0625 c 3.902344 0 7.0625 3.160156 7.0625 7.0625 z m 0 0" fill="#ff9800"/>
    <g clip-path="url(#h)" mask="url(#d)">
        <g clip-path="url(#g)" mask="url(#e)">
            <path d="m 128 80.640625 v 47.359375 h -128 v -47.359375 z m 0 0" fill="url(#f)"/>
            <path d="m 13.308594 80.640625 l 47.355468 47.359375 h 21.214844 l -47.359375 -47.359375 z m 42.421875 0 l 47.363281 47.359375 h 21.214844 l -47.363282 -47.359375 z m 42.429687 0 l 29.839844 29.839844 v -21.210938 l -8.628906 -8.628906 z m -98.160156 7.90625 v 21.214844 l 18.238281 18.238281 h 21.214844 z m 0 0"/>
        </g>
    </g>
</svg>
